<svg xmlns="http://www.w3.org/2000/svg" version="1.1" xmlns:xlink="http://www.w3.org/1999/xlink" xmlns:svgjs="http://svgjs.dev/svgjs" width="100%" height="100%" viewBox="0 0 1000 600"><rect width="1000" height="600" x="0" y="0" fill="#f7f7f7"/><g><circle r="166.66666666666666" cx="367.3291880289713" cy="389.5513428419419" fill="#FFFF" transform="matrix(0.6229367119948579,0,0,0.6229367119948579,0,57.3341725070773)"/><path d="M323.4082208108248 464.5513412658419L323.4082208108248 464.5513412658419Q315.9756597194785 464.5513412658419 310.20753315824055 458.03708888076227Q304.41070944993186 451.52283649568267 304.41070944993186 437.69081160754007L304.41070944993186 437.69081160754007Q304.41070944993186 427.96247875052694 306.993452686307 418.2628430405846Q309.5761959226822 408.56320733064223 312.27372774734073 400.49930900373755L312.27372774734073 400.49930900373755Q316.406116925541 387.2699242040825 319.5054088091912 376.10673399352754Q322.60470069284145 364.94354378297265 322.60470069284145 354.8421480140386L322.60470069284145 354.8421480140386Q322.60470069284145 347.811346981684 321.0550547510163 345.11381515702544Q319.5054088091912 342.4449804794378 317.00875701402856 342.4449804794378L317.00875701402856 342.4449804794378Q314.33992233644085 342.4449804794378 311.12584186450727 345.3146951865213Q307.91176139257374 348.21310704067565 304.8124695089235 354.21081077848027L304.8124695089235 354.21081077848027L303.37761215538177 353.80905071948854Q303.77937221437344 341.81364324387937 308.54309862813216 333.14710482848716Q313.30682504189076 324.45186926602406 320.53850610374127 319.71683999933623Q327.7701871655918 314.95311358557757 335.40362828643396 314.95311358557757L335.40362828643396 314.95311358557757Q344.0701667018262 314.95311358557757 350.26875046912664 321.8691260296489Q356.46733423642706 328.78513847372017 356.46733423642706 345.74515239258386L356.46733423642706 345.74515239258386Q356.46733423642706 354.61257083747194 354.71680826510607 364.34090369448506Q352.9662822937851 374.0405394044274 350.69920767518914 383.76887226144055L350.69920767518914 383.76887226144055Q357.7300087075438 380.8704604072862 365.56432985788183 379.6364830832403Q373.4273481552907 378.3738086121236 382.29476660017883 378.3738086121236L382.29476660017883 378.3738086121236L387.6898302494958 378.3738086121236Q390.3586649270835 368.0428356666228 392.33876807497114 358.0275313389013Q394.29017407578795 348.01222701117985 394.29017407578795 339.3456885957876L394.29017407578795 339.3456885957876Q394.29017407578795 336.2463967121373 393.97450545800876 333.5488648874788Q393.6588368402296 330.85133306282034 393.25707678123786 328.3833784147285L393.25707678123786 328.3833784147285L393.25707678123786 326.71894388462005Q396.3563686648881 321.151697352878 402.2392838144093 317.851525439732Q408.12219896393054 314.5513535265859 414.11990270173516 314.5513535265859L414.11990270173516 314.5513535265859Q420.9498237045939 314.5513535265859 426.11531017734427 318.97071417549455Q431.28079665009466 323.418771971474 431.28079665009466 333.14710482848716L431.28079665009466 333.14710482848716Q431.28079665009466 340.37878589033767 428.49717338422363 351.7428561303884Q425.68485297128177 363.10692637043917 422.18380102863983 375.0736366989775L422.18380102863983 375.0736366989775Q418.05141185043954 389.73787885217433 414.63645134901014 403.4838122991044Q411.22149084758075 417.22974574603455 411.22149084758075 426.728501426481L411.22149084758075 426.728501426481Q411.22149084758075 433.1279652232773 413.28768543668093 436.85859434248584Q415.35388002578105 440.5892234616944 419.91672641004385 440.5892234616944L419.91672641004385 440.5892234616944Q426.11531017734427 440.5892234616944 429.2146020609945 434.59151972388986L429.2146020609945 434.59151972388986L430.4485793850404 435.1941598123774Q430.24769935554457 443.8893953748405 425.68485297128177 450.48973920113264Q421.15070373408975 457.11878017449556 414.43557131951434 460.8207121466333Q407.7204389049389 464.5513412658419 400.6896378725842 464.5513412658419L400.6896378725842 464.5513412658419Q394.4910541052838 464.5513412658419 389.00989901475424 461.33726079390834Q383.55744107129556 458.1518774690456 380.14248056986617 451.3219564661868Q376.7275200684368 444.492035463328 376.7275200684368 433.55842242933977L376.7275200684368 433.55842242933977Q376.7275200684368 426.3267413674893 378.27716601026185 417.7462943933096Q379.8268119520869 409.16584741912976 381.8930065411871 400.2984289742417L381.8930065411871 400.2984289742417Q372.3942508607406 399.6670917386833 363.29725523928585 399.6670917386833L363.29725523928585 399.6670917386833Q358.7631060020939 399.6670917386833 354.6307168238936 399.8679717681792Q350.4983276456933 400.068851797675 346.7676985264847 400.49930900373755L346.7676985264847 400.49930900373755Q344.9023839668804 408.7640873601381 343.5536180545512 416.7131970987595Q342.23354928929274 424.66230683738087 342.23354928929274 432.0948679287272L342.23354928929274 432.0948679287272Q342.23354928929274 436.2272571069275 342.7500979365678 440.27355484391524Q343.2666465838428 444.2911554338322 344.5006239078887 448.02178455304073L344.5006239078887 448.02178455304073Q341.2004519947427 456.0856828799455 335.2888396981506 460.30416349935825Q329.4059245486294 464.5513412658419 323.4082208108248 464.5513412658419Z " fill="#023e7d" transform="matrix(0.6229367119948579,0,0,0.6229367119948579,0,57.3341725070773)"/><path d="M633.1020256612603 432.6667413211072L633.1020256612603 432.6667413211072Q627.2493596259706 432.6667413211072 622.7073292279272 427.537184602919Q618.1427016637244 422.40762788473074 618.1427016637244 411.5157937958905L618.1427016637244 411.5157937958905Q618.1427016637244 403.85535446784723 620.1764466180722 396.21751230596334Q622.21019157242 388.57967014407956 624.3343251914055 382.2298664532826L624.3343251914055 382.2298664532826Q627.5883171183618 371.8125728537902 630.0288110635792 363.0222752177759Q632.4693050087965 354.2319775817617 632.4693050087965 346.277775093646L632.4693050087965 346.277775093646Q632.4693050087965 340.7414693845882 631.2490580361878 338.6173357656028Q630.0288110635792 336.5157993127767 628.0628576077097 336.5157993127767L628.0628576077097 336.5157993127767Q625.9613211548836 336.5157993127767 623.4304385450287 338.7755159287187Q620.8995559351736 341.0578297108201 618.4590619899564 345.7806374381388L618.4590619899564 345.7806374381388L617.3292036819853 345.4642771119069Q617.6455640082172 336.0186616572695 621.3966935906808 329.19431747712474Q625.1478231731445 322.34737613082063 630.8423090453182 318.6188437145164Q636.536794917492 314.8677141320527 642.5476411158977 314.8677141320527L642.5476411158977 314.8677141320527Q649.3719852960423 314.8677141320527 654.252973186477 320.3136311764729Q659.1339610769116 325.75954822089295 659.1339610769116 339.11447342111L659.1339610769116 339.11447342111Q659.1339610769116 346.09699776437066 657.755533941187 353.7574370924139Q656.3771068054625 361.39527925429775 654.5919306788683 369.055718582341L654.5919306788683 369.055718582341Q660.1282363879261 366.7734048002396 666.2972627494477 365.8017266553846Q672.4888862771286 364.8074513443701 679.4714106203893 364.8074513443701L679.4714106203893 364.8074513443701L683.7196778583602 364.8074513443701Q685.8212143111862 356.672471526979 687.3804187761862 348.7860605373416Q688.9170260750267 340.89964954770414 688.9170260750267 334.0753053675594L688.9170260750267 334.0753053675594Q688.9170260750267 331.63481142234207 688.6684572472731 329.51067780335666Q688.4198884195195 327.3865441843712 688.1035280932877 325.44318789466115L688.1035280932877 325.44318789466115L688.1035280932877 324.1325522574148Q690.5440220385049 319.74870202248735 695.1764411011859 317.1500279141541Q699.8088601638669 314.5513538058209 704.5316678911856 314.5513538058209L704.5316678911856 314.5513538058209Q709.9097934371275 314.5513538058209 713.977283345823 318.0313173943715Q718.0447732545185 321.5338781490815 718.0447732545185 329.19431747712474L718.0447732545185 329.19431747712474Q718.0447732545185 334.88880334929854 715.8528481370549 343.8372811484287Q713.6383258534318 352.78575894755886 710.8814715819826 362.20877723603684L710.8814715819826 362.20877723603684Q707.6274796550261 373.7559291435003 704.9384168820552 384.57997173386224Q702.2493541090843 395.40401432422425 702.2493541090843 402.88367632299213L702.2493541090843 402.88367632299213Q702.2493541090843 407.92284437654274 703.8763500725624 410.8604759772673Q705.5033460360407 413.79810757799186 709.0962954553884 413.79810757799186L709.0962954553884 413.79810757799186Q713.977283345823 413.79810757799186 716.4177772910404 409.07529985067316L716.4177772910404 409.07529985067316L717.3894554358955 409.5498403400209Q717.2312752727795 416.39678168632514 713.6383258534318 421.5941299029916Q710.0679736002435 426.8140752858175 704.7802367189392 429.72910972038267Q699.492499837635 432.6667413211072 693.9561941285773 432.6667413211072L693.9561941285773 432.6667413211072Q689.0752062381426 432.6667413211072 684.7591475016935 430.13585871125224Q680.4656859314038 427.62757326755667 677.7766231584328 422.2494477216148Q675.0875603854619 416.8713221756729 675.0875603854619 408.261801868934L675.0875603854619 408.261801868934Q675.0875603854619 402.56731599676027 676.3078073580705 395.8107633150938Q677.5280543306792 389.0542106334273 679.1550502941575 382.07168629016667L679.1550502941575 382.07168629016667Q671.6753882953896 381.57454863465944 664.5120866228535 381.57454863465944L664.5120866228535 381.57454863465944Q660.9417343696653 381.57454863465944 657.6877424427088 381.7327287977754Q654.4337505157523 381.8909089608913 651.4961189150279 382.2298664532826L651.4961189150279 382.2298664532826Q650.0273031146655 388.73785030719546 648.9652363051728 394.99726533335473Q647.9257666618395 401.25668035951395 647.9257666618395 407.10934639480365L647.9257666618395 407.10934639480365Q647.9257666618395 410.36333832176007 648.332515652709 413.54953875023824Q648.7392646435786 416.713142012557 649.7109427884336 419.6507736132815L649.7109427884336 419.6507736132815Q647.1122686801004 426.00057730407843 642.4572524512599 429.32236072951315Q637.824833388579 432.6667413211072 633.1020256612603 432.6667413211072ZM760.8212087943 433.14128181045504L760.8212087943 433.14128181045504Q748.6187390682134 433.14128181045504 740.6645365800977 428.2602939200204Q732.6877369258225 423.37930602958573 728.8688158448806 415.3347148768324Q725.0272975977792 407.29012372407897 725.0272975977792 398.16086859567343L725.0272975977792 398.16086859567343Q725.0272975977792 389.55134828893455 728.2134980262574 380.9192308160363Q731.3771012885761 372.3097105092974 737.4783361516195 365.21420033523964Q743.5795710146627 358.14128732734133 752.3698686506771 353.82522859089215Q761.1601662866913 349.53176702060244 772.5491380310388 349.53176702060244L772.5491380310388 349.53176702060244Q784.7516077571254 349.53176702060244 792.6380187467628 354.48054640951534Q800.5244297364002 359.45192296458765 804.3433508173422 367.5869027819787Q808.1848690644435 375.7218825993698 808.1848690644435 384.9867207247318L808.1848690644435 384.9867207247318Q808.1848690644435 393.46065803451415 805.089057300603 402.0023868427748Q801.9932455367625 410.5441156510354 795.8920106737191 417.61702865893375Q789.7907758106759 424.6899416668321 781.0004781746617 428.9156117386436Q772.2101805386475 433.14128181045504 760.8212087943 433.14128181045504ZM765.2276561953868 419.3118161208902L765.2276561953868 419.3118161208902Q769.6115064303142 419.3118161208902 772.5491380310388 414.76978572284685Q775.4641724656038 410.2051581586441 776.9329882659662 403.13224515074575Q778.4018040663284 396.05933214284744 778.4018040663284 388.73785030719546L778.4018040663284 388.73785030719546Q778.4018040663284 382.2298664532826 777.1815570937198 376.4449919164712Q775.9613101211111 370.6827145458192 773.5208161758937 367.0219736279932Q771.0803222306765 363.36123271016726 767.1710124850969 363.36123271016726L767.1710124850969 363.36123271016726Q762.9453424132854 363.36123271016726 759.9399193140825 367.9032631082106Q756.9344962148798 372.4678906724134 755.4656804145175 379.450415015674Q753.9968646141552 386.4555365250941 753.9968646141552 393.93519852386197L753.9968646141552 393.93519852386197Q753.9968646141552 400.4431823777748 755.2171115867638 406.22805691458626Q756.4373585593726 411.99033428523825 758.8778525045899 415.65107520306424Q761.3183464498072 419.3118161208902 765.2276561953868 419.3118161208902ZM860.4069200588622 432.6667413211072L860.4069200588622 432.6667413211072Q853.8989362049493 432.6667413211072 848.5208106590076 429.8194983850204Q843.165282279225 426.9722554489335 839.7305130229933 421.43594973987564L839.7305130229933 421.43594973987564Q839.5723328598774 424.53176150371615 837.4707964070514 427.13043561204944Q835.3466627880658 429.72910972038267 829.4939967527762 429.72910972038267L829.4939967527762 429.72910972038267Q822.9860128988634 429.72910972038267 819.8902011350228 426.15875746719433Q816.7943893711823 422.56580804784664 816.7943893711823 416.713142012557L816.7943893711823 416.713142012557Q816.7943893711823 413.14278975936867 817.7660675160374 406.3862370777022Q818.7603428270519 399.6296843960357 820.1387699627765 391.1783442524128Q821.5171970985011 382.70440694263044 822.8956242342256 373.5977489803843Q824.2740513699503 364.4910910181382 825.2683266809647 355.8589735452399Q826.2400048258198 347.2494532385011 826.2400048258198 340.4025118921969L826.2400048258198 340.4025118921969Q826.2400048258198 335.86048149415353 825.7428671703125 332.4483094040812Q825.2683266809647 329.0135401478494 823.9576910437183 327.07018385813933L823.9576910437183 327.07018385813933L823.9576910437183 326.0985057132843Q827.708820626182 322.0310158045887 831.7763105348776 319.99727085024097Q835.8438004435732 317.9635258958932 839.5723328598774 317.9635258958932L839.5723328598774 317.9635258958932Q845.1086385689351 317.9635258958932 849.0179483145148 322.34737613082063Q852.9272580600943 326.7538235319074 852.9272580600943 336.33502198350135L852.9272580600943 336.33502198350135Q852.9272580600943 341.0578297108201 851.9329827490799 349.5995585190807Q850.9613046042248 358.14128732734133 849.4924888038626 366.6152246371237L849.4924888038626 366.6152246371237Q855.3677520053117 358.29946749045723 861.9435273577028 353.9156172555298Q868.5418998762533 349.53176702060244 874.7109262377749 349.53176702060244L874.7109262377749 349.53176702060244Q883.0266833844412 349.53176702060244 888.8793494197309 357.4181780102399Q894.7320154550207 365.30458899987735 894.7320154550207 381.2581883084276L894.7320154550207 381.2581883084276Q894.7320154550207 390.68120659690555 892.5400903375569 399.87825322378933Q890.3481652200933 409.07529985067316 885.9417178190064 416.4645731848033Q881.5578675840791 423.87644368509297 875.1176752286444 428.2602939200204Q868.7000800393693 432.6667413211072 860.4069200588622 432.6667413211072ZM852.2719402414712 416.2386015232091L852.2719402414712 416.2386015232091Q857.4692884581376 416.2386015232091 861.1300293759637 411.6739739590064Q864.7907702937896 407.10934639480365 866.6663350850215 400.0364333869053Q868.5418998762533 392.9635203790069 868.5418998762533 385.48385838023904L868.5418998762533 385.48385838023904Q868.5418998762533 380.6028704898044 867.7284018945143 376.1286315902393Q866.9149039127751 371.65439269067423 865.2879079492968 368.8071497545874Q863.6609119858186 365.9599068185005 861.0622378774854 365.9599068185005L861.0622378774854 365.9599068185005Q856.4976103132826 365.9599068185005 850.7127357764712 376.6031720795871Q844.9504584058192 387.2690345068332 841.6964664788628 406.7929860685718L841.6964664788628 406.7929860685718Q844.6115009134279 416.2386015232091 852.2719402414712 416.2386015232091ZM946.4795259600916 432.6667413211072L946.4795259600916 432.6667413211072Q939.9715421061787 432.6667413211072 934.5934165602368 429.8194983850204Q929.215291014295 426.9722554489335 925.8031189242226 421.43594973987564L925.8031189242226 421.43594973987564Q925.6449387611067 424.53176150371615 923.5208051421212 427.13043561204944Q921.4192686892952 429.72910972038267 915.5666026540055 429.72910972038267L915.5666026540055 429.72910972038267Q909.0586188000927 429.72910972038267 905.9628070362521 426.15875746719433Q902.8669952724117 422.56580804784664 902.8669952724117 416.713142012557L902.8669952724117 416.713142012557Q902.8669952724117 413.14278975936867 903.8386734172668 406.3862370777022Q904.8103515621217 399.6296843960357 906.2113758640057 391.1783442524128Q907.5898029997304 382.70440694263044 908.968230135455 373.5977489803843Q910.3466572711795 364.4910910181382 911.3183354160346 355.8589735452399Q912.3126107270491 347.2494532385011 912.3126107270491 340.4025118921969L912.3126107270491 340.4025118921969Q912.3126107270491 335.86048149415353 911.8154730715419 332.4483094040812Q911.3183354160346 329.0135401478494 910.0302969449476 327.07018385813933L910.0302969449476 327.07018385813933L910.0302969449476 326.0985057132843Q913.758829361252 322.0310158045887 917.8263192699474 319.99727085024097Q921.8938091786431 317.9635258958932 925.6449387611067 317.9635258958932L925.6449387611067 317.9635258958932Q931.1812444701645 317.9635258958932 935.0905542157441 322.34737613082063Q938.9772667951643 326.7538235319074 938.9772667951643 336.33502198350135L938.9772667951643 336.33502198350135Q938.9772667951643 341.0578297108201 938.0055886503092 349.5995585190807Q937.0339105054541 358.14128732734133 935.565094705092 366.6152246371237L935.565094705092 366.6152246371237Q941.4177607403816 358.29946749045723 948.0161332589321 353.9156172555298Q954.6145057774826 349.53176702060244 960.7835321390041 349.53176702060244L960.7835321390041 349.53176702060244Q969.0766921195112 349.53176702060244 974.9519553209602 357.4181780102399Q980.80462135625 365.30458899987735 980.80462135625 381.2581883084276L980.80462135625 381.2581883084276Q980.80462135625 390.68120659690555 978.6126962387863 399.87825322378933Q976.3981739551632 409.07529985067316 972.0143237202358 416.4645731848033Q967.6304734853084 423.87644368509297 961.1902811298737 428.2602939200204Q954.7726859405986 432.6667413211072 946.4795259600916 432.6667413211072ZM938.3445461427004 416.2386015232091L938.3445461427004 416.2386015232091Q943.541894359367 416.2386015232091 947.2026352771929 411.6739739590064Q950.863376195019 407.10934639480365 952.7389409862508 400.0364333869053Q954.6145057774826 392.9635203790069 954.6145057774826 385.48385838023904L954.6145057774826 385.48385838023904Q954.6145057774826 380.6028704898044 953.8010077957435 376.1286315902393Q952.9875098140044 371.65439269067423 951.3605138505261 368.8071497545874Q949.733517887048 365.9599068185005 947.1122466125553 365.9599068185005L947.1122466125553 365.9599068185005Q942.570216214512 365.9599068185005 936.7853416777006 376.6031720795871Q931.0230643070486 387.2690345068332 927.7690723800921 406.7929860685718L927.7690723800921 406.7929860685718Q930.6841068146573 416.2386015232091 938.3445461427004 416.2386015232091ZM1023.4228767329155 464.5513427720483L1023.4228767329155 464.5513427720483Q1015.2878969155244 464.5513427720483 1010.3391175266115 459.579966216976Q1005.3677409715391 454.6311868280631 1005.3677409715391 446.1572495182807L1005.3677409715391 446.1572495182807Q1005.3677409715391 441.77339928335334 1006.9043482703796 436.4856624020491Q1008.4635527353796 431.19792552074495 1012.0339049885679 425.34525948545524L1012.0339049885679 425.34525948545524Q1004.0571053342928 424.848121829948 998.9501457822639 419.9671339395134Q993.8205890640756 415.08614604907876 993.8205890640756 405.16599010509356L993.8205890640756 405.16599010509356Q993.8205890640756 399.31332406980385 995.3571963629162 392.5567713881374Q996.9164008279162 385.80021870647096 998.362619462119 379.85716400654354Q999.8314352624814 373.9367064727756 999.8314352624814 370.6827145458192L999.8314352624814 370.6827145458192Q999.8314352624814 368.24222060060185 998.8597571176263 367.18015379110915Q997.8880789727712 366.11808698161644 996.577443335525 366.11808698161644L996.577443335525 366.11808698161644Q995.289404864438 366.11808698161644 993.730200399438 367.18015379110915Q992.1935931005976 368.24222060060185 991.3800951188583 370.3437570534279L991.3800951188583 370.3437570534279L988.6006436812497 367.42872261886276Q989.5949189922642 362.3669573991528 992.8489109192207 358.4802448197326Q996.1029028461771 354.570935074153 1000.8031134073364 352.28862129205163Q1005.5259211346549 350.00630750995026 1010.5650891882057 350.00630750995026L1010.5650891882057 350.00630750995026Q1016.2595750603793 350.00630750995026 1020.5078422983503 353.6670484277762Q1024.7335123701616 357.3277893456022 1024.7335123701616 366.93158496335553L1024.7335123701616 366.93158496335553Q1024.7335123701616 372.94243116176114 1023.2646965697995 379.85716400654354Q1021.7958807694372 386.77189685132595 1020.3270649690749 392.87313171436926Q1018.8808463348721 398.9743665774126 1018.8808463348721 402.56731599676027L1018.8808463348721 402.56731599676027Q1018.8808463348721 405.8213079237167 1020.2592734705967 407.35791522255727Q1021.6377006063212 408.9171196875572 1023.4228767329155 408.9171196875572L1023.4228767329155 408.9171196875572Q1025.7051905150167 408.9171196875572 1028.6428221157414 406.3862370777022Q1031.5578565503065 403.85535446784723 1034.15653065864 398.00268843255753Q1036.7778019331324 392.15002239726783 1037.5912999148713 382.2298664532826L1037.5912999148713 382.2298664532826Q1037.9076602411033 379.13405468944217 1038.0658404042192 374.34345546364517Q1038.2240205673352 369.5302590716888 1038.4047978966105 365.394977664515Q1038.5629780597264 361.2370990911818 1038.5629780597264 360.26542094632674L1038.5629780597264 360.26542094632674Q1038.5629780597264 354.41275491103704 1042.8790367961756 352.040052464298Q1047.1724983664653 349.68994718371835 1052.3924437492915 349.68994718371835L1052.3924437492915 349.68994718371835Q1056.9344741473346 349.68994718371835 1061.0019640560304 351.47512331031254Q1065.0694539647257 353.2602994369067 1066.538269765088 357.48596950871814L1066.538269765088 357.48596950871814L1066.8772272574793 358.4802448197326Q1065.408411457117 359.7682832908195 1064.3463446476244 367.2479452895874Q1063.2842778381316 374.75020445451474 1061.8154620377693 387.2690345068332L1061.8154620377693 387.2690345068332Q1060.8437838929142 395.40401432422425 1059.374968092552 405.6631277606008Q1057.928749458349 415.89964403081785 1055.3978668484942 426.22654896567263Q1052.8669842386391 436.57605106668683 1048.7317028314653 445.2759600380634Q1044.5738242581322 453.9758690094399 1038.4047978966105 459.26360589074415Q1032.2131743689297 464.5513427720483 1023.4228767329155 464.5513427720483ZM1019.5135669873357 445.84088919204885L1019.5135669873357 445.84088919204885Q1024.575332207046 445.84088919204885 1028.5524334511035 436.6438425651651Q1032.5295346951616 427.44679593828124 1034.8118484772629 410.5441156510354L1034.8118484772629 410.5441156510354Q1024.3945548777704 423.87644368509297 1020.5078422983503 431.5142858469768Q1016.5985325527706 439.17472517502006 1016.5985325527706 442.58689726509243L1016.5985325527706 442.58689726509243Q1016.5985325527706 445.84088919204885 1019.5135669873357 445.84088919204885ZM1091.5985270358844 432.6667413211072L1091.5985270358844 432.6667413211072Q1085.5876808374787 432.6667413211072 1080.6163042824064 427.78575343067257Q1075.644927727334 422.904765540238 1075.644927727334 412.3292917776296L1075.644927727334 412.3292917776296Q1075.644927727334 401.7538180150212 1077.678672681682 391.9014535695142Q1079.7124176360296 382.07168629016667 1082.4014804090007 372.94243116176114Q1085.0905431819715 363.835773199515 1087.1242881363191 355.6330018836457Q1089.1580330906672 347.407633401617 1089.1580330906672 340.086151565965L1089.1580330906672 340.086151565965Q1086.7175391454498 339.11447342111 1084.5934055264643 339.11447342111L1084.5934055264643 339.11447342111Q1081.6783710918992 339.11447342111 1079.7124176360296 340.89964954770414Q1077.7690613463196 342.6848256742983 1076.6392030383486 345.7806374381388L1076.6392030383486 345.7806374381388L1075.0122070748703 345.28349978263157Q1075.1703872379862 333.8945280382841 1078.333990500305 327.160572522777Q1081.5201909287832 320.40401984111054 1086.5593589823338 317.466388240386Q1091.5985270358844 314.5513538058209 1096.9766525818263 314.5513538058209L1096.9766525818263 314.5513538058209Q1105.1116323992173 314.5513538058209 1111.5292275884924 319.839090687125Q1117.9468227777677 325.12682756842923 1123.076379495956 334.23348553067535Q1128.205936214144 343.34014349292147 1132.0248572950861 354.8195039019066Q1135.843778376028 366.27626714473234 1138.6232298136365 378.7273056985726Q1141.3800840850859 391.1783442524128 1143.0070800485641 403.22263381538346L1143.0070800485641 403.22263381538346Q1143.9787581934193 396.71464996147057 1145.0408250029118 387.2690345068332Q1146.1028918124046 377.8234190521958 1146.9163897941435 367.42872261886276Q1147.7298877758826 357.0114290193703 1147.7298877758826 347.56581356473293L1147.7298877758826 347.56581356473293Q1147.7298877758826 340.7414693845882 1147.2327501203754 335.1147750108927Q1146.7582096310277 329.51067780335666 1145.6057541568973 325.44318789466115L1145.6057541568973 325.44318789466115L1145.6057541568973 324.1325522574148Q1149.8540213948681 319.4323416962555 1154.147482965158 316.99184775103816Q1158.463541701607 314.5513538058209 1162.2146712840708 314.5513538058209L1162.2146712840708 314.5513538058209Q1167.7509769931285 314.5513538058209 1171.4117179109544 319.3419530316178Q1175.0724588287803 324.1325522574148 1175.0724588287803 332.922849893429L1175.0724588287803 332.922849893429Q1175.0724588287803 339.43083374734186 1173.264685536027 348.7860605373416Q1171.4795094094327 358.14128732734133 1169.0390154642155 368.71676108994967Q1166.598521518998 379.29223485255807 1164.7229567277664 389.4609596242969Q1162.869989102694 399.6296843960357 1162.6892117734185 407.7646642134268L1162.6892117734185 407.7646642134268Q1162.6892117734185 410.04697799552815 1163.02816926581 412.64565210386144Q1163.3445295920417 415.2443262121947 1166.440341355882 415.2443262121947L1166.440341355882 415.2443262121947Q1166.598521518998 415.89964403081785 1166.598521518998 416.2386015232091Q1166.598521518998 416.554961849441 1166.598521518998 416.8713221756729L1166.598521518998 416.8713221756729Q1166.440341355882 423.0629457033539 1161.5593534654477 427.8535449291508Q1156.678365575013 432.6667413211072 1148.5433857576218 432.6667413211072L1148.5433857576218 432.6667413211072Q1142.193582066825 432.6667413211072 1137.8097318318976 429.4127493941508Q1133.4032844308108 426.15875746719433 1130.4882499962455 420.71284042277426Q1127.550618395521 415.2443262121947 1125.5168734411732 408.32959336741226Q1123.4831284868255 401.4148605226299 1121.6979523602313 394.0933786869779L1121.6979523602313 394.0933786869779Q1118.443960433275 381.41636847154354 1114.9413996785647 369.93700806255833Q1111.4388389238547 358.4802448197326 1105.5861728885652 348.87644920197926L1105.5861728885652 348.87644920197926Q1105.9251303809565 355.3844330558921 1105.1116323992173 363.11266388241364Q1104.2981344174782 370.84089470893514 1103.3942477711014 378.7273056985726Q1102.4903611247246 386.61371668821005 1102.4903611247246 393.93519852386197L1102.4903611247246 393.93519852386197Q1102.4903611247246 400.4431823777748 1103.642816598855 405.889099422195Q1104.772674906826 411.35761363277453 1107.7103065075505 415.583283704586L1107.7103065075505 415.583283704586Q1107.7103065075505 423.5600833588611 1102.671138454 428.1021137569045Q1097.60937323429 432.6667413211072 1091.5985270358844 432.6667413211072ZM1223.0688397513877 433.14128181045504L1223.0688397513877 433.14128181045504Q1211.1827303515329 433.14128181045504 1203.3641108603738 428.35068258465805Q1195.568088535374 423.5600833588611 1191.6587787897945 415.65107520306424Q1187.749469044215 407.7646642134268 1187.749469044215 398.65800625118067L1187.749469044215 398.65800625118067Q1187.749469044215 390.0258887782824 1191.093849635809 381.3259798069058Q1194.4156330612436 372.6260708355293 1200.8558254166783 365.46276916299325Q1207.2734206059536 358.29946749045723 1216.470467232837 353.9156172555298Q1225.667513859721 349.53176702060244 1237.2146657671844 349.53176702060244L1237.2146657671844 349.53176702060244Q1251.5412691122565 349.53176702060244 1258.1170444646475 355.9493622098776Q1264.715416983198 362.3669573991528 1264.715416983198 371.49621252755827L1264.715416983198 371.49621252755827Q1264.715416983198 379.29223485255807 1260.5575384098647 385.8906073711086Q1256.4222570026911 392.4663827234997 1249.575315656387 396.46608113371695Q1242.7509714762423 400.4431823777748 1234.6159916588513 400.4431823777748L1234.6159916588513 400.4431823777748Q1230.3903215870396 400.4431823777748 1225.983874185953 399.1551439066879Q1221.6000239510256 397.8445082694416 1217.3743538792141 395.0876539979924L1217.3743538792141 395.0876539979924Q1218.187851860953 405.16599010509356 1223.2270199145037 409.7306176692963Q1228.2661879680543 414.2726480673396 1235.2713094774745 414.2726480673396L1235.2713094774745 414.2726480673396Q1240.152297367909 414.2726480673396 1245.0332852583438 412.3970832761078Q1249.9142731487782 410.5441156510354 1254.049554555952 407.51609538567317Q1258.2074331292852 404.51067228647037 1260.4897469113866 401.098500196398L1260.4897469113866 401.098500196398L1261.6196052193577 401.91199817813714Q1261.6196052193577 410.36333832176007 1258.1170444646475 416.3063930216874Q1254.6144837099375 422.2494477216148 1248.9199978377637 426.00057730407843Q1243.2255119655902 429.72910972038267 1236.491556450083 431.44649434849856Q1229.7350037684164 433.14128181045504 1223.0688397513877 433.14128181045504ZM1226.797372167692 389.2123907965433L1226.797372167692 389.2123907965433Q1232.0173175505179 389.2123907965433 1235.2713094774745 386.2069676973405Q1238.5253014044306 383.2015445981377 1240.152297367909 379.13405468944217Q1241.7792933313872 375.0665647807466 1241.7792933313872 371.97075301690614L1241.7792933313872 371.97075301690614Q1241.7792933313872 368.24222060060185 1239.6551597124017 365.71133799074687Q1237.5310260934161 363.1804553808919 1233.8024936771121 363.1804553808919L1233.8024936771121 363.1804553808919Q1230.8648620763875 363.1804553808919 1227.3623013216775 365.30458899987735Q1223.8823377331269 367.42872261886276 1221.1028862955181 372.5356821708916Q1218.3460320240692 377.66523888907983 1217.53253404233 386.77189685132595L1217.53253404233 386.77189685132595Q1222.7298822589964 389.2123907965433 1226.797372167692 389.2123907965433ZM1300.5093281797188 433.4802393028463L1300.5093281797188 433.4802393028463Q1290.4083949064584 433.4802393028463 1283.7422308894295 430.7007878652377Q1277.0760668724006 427.94393359378853 1273.8220749454442 423.62787485733935Q1270.5680830184879 419.3118161208902 1270.5680830184879 414.9279658859628L1270.5680830184879 414.9279658859628Q1270.5680830184879 408.73634235828183 1276.1043887275455 403.9457431324849Q1281.6406944366036 399.1551439066879 1291.0637127250814 399.1551439066879L1291.0637127250814 399.1551439066879Q1291.0637127250814 407.4483038871949 1293.1878463440667 412.3970832761078Q1295.2893827968928 417.36845983118013 1298.6337633884868 419.4925934501656Q1301.9781439800813 421.5941299029916 1305.0513585777621 421.5941299029916L1305.0513585777621 421.5941299029916Q1308.802488160226 421.5941299029916 1311.3333707700808 419.4022047855279Q1313.8416562137763 417.2102796680642 1313.8416562137763 413.95628774110776L1313.8416562137763 413.95628774110776Q1313.8416562137763 409.391660176905 1309.1188484864576 405.97948808683265Q1304.4186379252983 402.56731599676027 1296.9163787603711 398.3416459249488L1296.9163787603711 398.3416459249488Q1293.1878463440667 396.05933214284744 1288.78139894298 393.05390904364464Q1284.3975487080525 390.0258887782824 1281.301736944212 385.73242720799266Q1278.2059251803717 381.41636847154354 1278.2059251803717 375.38292510697846L1278.2059251803717 375.38292510697846Q1278.2059251803717 369.055718582341 1281.8666660981976 364.17473069190635Q1285.5274070160235 359.2937428014717 1291.5608503805888 355.9493622098776Q1297.5716965789943 352.6049816182835 1304.5768180884143 350.910194156327Q1311.559342431675 349.1928095282111 1318.2481036148633 349.1928095282111L1318.2481036148633 349.1928095282111Q1330.7669336671818 349.1928095282111 1337.1167373579788 354.2319775817617Q1343.4665410487755 359.2937428014717 1343.4665410487755 364.98822867364544L1343.4665410487755 364.98822867364544Q1343.4665410487755 369.8692165640801 1338.5855531583409 373.7559291435003Q1333.7045652679062 377.66523888907983 1323.6036319946456 377.66523888907983L1323.6036319946456 377.66523888907983Q1323.7618121577616 369.37207890857286 1320.1914599045733 365.55315782763097Q1316.621107651385 361.734236746689 1312.5536177426895 361.734236746689L1312.5536177426895 361.734236746689Q1309.615986141965 361.734236746689 1307.6726298522549 363.51941287328316Q1305.7066763963853 365.30458899987735 1305.7066763963853 368.71676108994967L1305.7066763963853 368.71676108994967Q1305.7066763963853 372.6260708355293 1308.2375590062402 375.4733137716162Q1310.745844449936 378.320556707703 1314.5873626970374 380.51248182516673Q1318.4062837779793 382.70440694263044 1322.4737736866746 384.67036039849995L1322.4737736866746 384.67036039849995Q1328.0100793957326 387.2690345068332 1332.891067286167 390.20666610755774Q1337.7720551766017 393.1217005421229 1340.8452697742828 396.8728301245865Q1343.9410815381234 400.60136254089076 1343.9410815381234 405.97948808683265L1343.9410815381234 405.97948808683265Q1343.9410815381234 413.3009699224846 1337.998026838196 419.56038494864384Q1332.077569304428 425.81979997480306 1322.1348161942833 429.6613182219044Q1312.214660250298 433.4802393028463 1300.5093281797188 433.4802393028463ZM1376.4810008076875 432.6667413211072L1376.4810008076875 432.6667413211072Q1371.283652591021 432.6667413211072 1366.65123352834 430.29403887436814Q1361.9962172994997 427.94393359378853 1359.148974363413 422.904765540238Q1356.3017314273256 417.86559748668736 1356.3017314273256 410.04697799552815L1356.3017314273256 410.04697799552815Q1356.3017314273256 405.8213079237167 1357.115229409065 398.9743665774126Q1357.928727390804 392.15002239726783 1359.3297516926882 384.01504257987676Q1360.7081788284127 375.8800627624857 1362.176994628775 367.7450829450946L1362.176994628775 367.7450829450946Q1358.9230027018186 367.9032631082106 1355.8949824364563 368.4004007637178Q1352.8895593372536 368.87494125306563 1349.9745249026885 369.5302590716888L1349.9745249026885 369.5302590716888L1349.635567410297 368.4004007637178Q1352.8895593372536 364.4910910181382 1356.4825087566014 361.734236746689Q1360.0528610097895 358.9547853090804 1363.9621707553692 357.1696091824863L1363.9621707553692 357.1696091824863Q1366.063707208195 346.43595525676193 1367.5325230085573 338.5495442671245Q1369.0013388089196 330.6405361113276 1369.0013388089196 329.19431747712474L1369.0013388089196 329.19431747712474Q1369.0013388089196 326.41486603951614 1373.3173975453687 324.629689912922Q1377.6334562818179 322.84451378632787 1382.9889846616002 322.84451378632787L1382.9889846616002 322.84451378632787Q1387.711792388919 322.84451378632787 1391.8696709622523 324.629689912922Q1396.004952369426 326.41486603951614 1397.4737681697884 330.6405361113276L1397.4737681697884 330.6405361113276Q1396.5020900249333 331.63481142234207 1394.716913898339 337.8942264485013Q1392.9091406055857 344.15364147466056 1390.9657843158757 353.1021192737907L1390.9657843158757 353.1021192737907Q1394.0615960797163 353.2602994369067 1397.3155880066724 353.4184796000226Q1400.569579933629 353.59925692929795 1403.9817520237013 353.9156172555298L1403.9817520237013 353.9156172555298Q1404.298112349933 354.88729540038486 1404.4788896792084 356.0397508745153Q1404.6370698423245 357.1696091824863 1404.6370698423245 358.4802448197326L1404.6370698423245 358.4802448197326Q1404.6370698423245 360.92073876494993 1403.8913633590637 363.7679817010368Q1403.1682540419622 366.6152246371237 1402.1965758971069 368.87494125306563L1402.1965758971069 368.87494125306563Q1398.2872661515275 368.55858092683377 1394.875094061455 368.1518319359642Q1391.462921971383 367.7450829450946 1388.2089300444263 367.5869027819787L1388.2089300444263 367.5869027819787Q1386.89829440718 374.5694271252394 1385.8362275976872 381.57454863465944Q1384.7741607881946 388.57967014407956 1384.2092316342091 394.2741560162533Q1383.6443024802238 399.96864188842704 1383.6443024802238 403.22263381538346L1383.6443024802238 403.22263381538346Q1383.6443024802238 410.04697799552815 1386.1751850900787 412.3292917776296Q1388.6834705337742 414.61160555973095 1392.2764199531218 414.61160555973095L1392.2764199531218 414.61160555973095Q1395.5304118800782 414.61160555973095 1398.1290859884116 413.3009699224846Q1400.727760096745 411.99033428523825 1401.8576184047158 410.2051581586441L1401.8576184047158 410.2051581586441L1403.484614368194 410.70229581415134Q1402.512936223339 417.36845983118013 1398.2872661515275 422.33983638625244Q1394.0615960797163 427.28861577516534 1388.2089300444263 429.9776785481363Q1382.3336668429774 432.6667413211072 1376.4810008076875 432.6667413211072Z " fill="#FFFF" transform="matrix(0.6229367119948579,0,0,0.6229367119948579,0,57.3341725070773)"/></g></svg>